<?xml version="1.0" encoding="UTF-8"?><svg id="a" xmlns="http://www.w3.org/2000/svg" xmlns:xlink="http://www.w3.org/1999/xlink" viewBox="0 0 330 72"><defs><style>.c{fill:url(#b);}</style><linearGradient id="b" x1="22.1" y1="58.97" x2="60.7" y2="12.97" gradientTransform="matrix(1, 0, 0, 1, 0, 0)" gradientUnits="userSpaceOnUse"><stop offset="0" stop-color="#00ba38"/><stop offset="1" stop-color="#00c6e3"/></linearGradient></defs><g><path d="M80.24,23.91c2.84,0,5.33,.72,7.41,2.16,2.07,1.44,3.47,3.34,4.11,5.71l-5.84,1.69c-.85-2.54-2.84-4.06-5.67-4.06-3.6,0-6.14,2.58-6.14,6.35s2.54,6.35,6.14,6.35c2.84,0,4.74-1.35,5.67-4.06l5.84,1.69c-.63,2.37-2.03,4.28-4.11,5.71-2.07,1.44-4.57,2.16-7.41,2.16-6.9,.13-12.53-5.21-12.4-11.85-.13-6.65,5.5-11.98,12.4-11.85Z"/><path d="M94.84,16.08h6.26v30.9h-6.26V16.08Z"/><path d="M105.17,14.6h6.48v6.26h-6.48v-6.26Zm.13,9.95h6.26v22.43h-6.26V24.54Z"/><path d="M127.3,23.91c2.84,0,5.33,.72,7.41,2.16,2.07,1.44,3.47,3.34,4.11,5.71l-5.84,1.69c-.85-2.54-2.84-4.06-5.67-4.06-3.6,0-6.14,2.58-6.14,6.35s2.54,6.35,6.14,6.35c2.84,0,4.74-1.35,5.67-4.06l5.84,1.69c-.63,2.37-2.03,4.28-4.11,5.71-2.07,1.44-4.57,2.16-7.41,2.16-6.9,.13-12.53-5.21-12.4-11.85-.13-6.65,5.5-11.98,12.4-11.85Z"/><path d="M141.95,16.08h6.26v17.48h.08l10.12-9.02h8.76l-10.54,9.14,10.96,13.29h-7.66l-7.49-9.48h-.08l-4.15,3.51v5.97h-6.26V16.08Z"/><path d="M172.59,38.3c.89,2.88,3.17,4.32,6.77,4.32,3.26,0,5.12-.72,5.12-1.95,0-1.31-1.35-1.9-5.54-2.54-8.21-1.27-11.13-3.26-11.13-7.28s4.15-6.94,10.33-6.94c5.63,0,10.75,2.88,11.94,6.77l-5.71,1.74c-.85-2.16-3.26-3.51-6.26-3.51-2.58,0-4.28,.76-4.28,1.95s1.19,1.61,6.14,2.46c7.58,1.19,10.58,3.26,10.58,7.32s-4.49,6.98-11.22,6.98c-3.3,0-6.1-.72-8.38-2.16-2.29-1.4-3.68-3.34-4.23-5.76l5.88-1.4Z"/><path d="M202.68,29.88v9.48c0,1.4,.46,1.82,2.29,1.82h4.11v5.8h-4.74c-5.63,0-7.92-2.2-7.92-7.24v-9.86h-5.29v-5.33h5.29v-5.63h6.26v5.63h7.24v5.33h-7.24Z"/><path d="M212.88,24.54h5.88v2.16h.08c1.65-1.74,3.85-2.58,6.6-2.58,1.14,0,2.37,.21,3.68,.59l-1.31,5.63c-1.14-.3-2.2-.47-3.26-.47-3.43,0-5.42,2.29-5.42,6.86v10.24h-6.26V24.54Z"/><path d="M241.53,23.91c7.45,0,12.19,5.25,12.19,12.06v1.78h-18.2c.21,2.92,2.62,4.78,6.35,4.78,2.71,0,4.66-1.02,6.9-3.34l3.89,3.89c-2.71,2.92-6.05,4.53-10.75,4.53-7.83,0-12.57-4.7-12.57-11.81s5.12-11.89,12.19-11.89Zm6.09,9.44c-.3-2.67-2.62-4.36-5.97-4.36s-5.71,1.69-6.05,4.36h12.02Z"/><path d="M265.53,33.6c4.11-.55,5.33-1.14,5.33-2.29,0-1.48-1.57-2.37-3.98-2.37-2.88,0-5.04,1.52-5.59,4.02l-5.93-1.23c.85-4.57,5.54-7.83,11.34-7.83,6.56,0,10.62,3.34,10.62,8.8v14.26h-5.63v-2.46h-.08c-1.35,1.9-4.23,3.09-7.58,3.09-4.95,0-8.38-2.71-8.38-6.69,0-4.19,2.79-6.35,9.86-7.32Zm5.84,2.37h-.08c-.55,.8-1.74,1.27-4.78,1.82-3.68,.68-4.99,1.4-4.99,2.71s1.1,1.95,3.47,1.95c3.6,0,6.39-1.65,6.39-3.81v-2.67Z"/><path d="M281.36,24.54h5.5v2.16h.08c1.52-1.69,4.15-2.79,6.9-2.79s5.63,1.27,7.11,3.13h.08c1.86-2.03,4.49-3.13,7.32-3.13,6.05,0,10.24,3.98,10.24,9.65v13.42h-6.05v-12.44c0-3.17-1.86-5.12-4.74-5.12-3.05,0-4.91,1.9-4.91,5.12v12.44h-5.8v-12.44c0-3.17-1.9-5.12-4.74-5.12-3.05,0-4.95,1.9-4.95,5.12v12.44h-6.05V24.54Z"/></g><path class="c" d="M50.49,10.51c0-1.14,.92-2.06,2.06-2.06s2.06,.92,2.06,2.06-.92,2.06-2.06,2.06-2.06-.92-2.06-2.06Zm-11.1-1.49c.83,0,1.51-.68,1.51-1.51s-.68-1.51-1.51-1.51-1.51,.68-1.51,1.51,.68,1.51,1.51,1.51Zm19.03,4.25c.39-.39,.39-1.02,0-1.4s-1.02-.39-1.4,0-.39,1.02,0,1.4c.39,.39,1.02,.39,1.4,0Zm-9.05-4.12c.39-.39,.39-1.02,0-1.4-.39-.39-1.02-.39-1.4,0s-.39,1.02,0,1.4,1.02,.39,1.4,0Zm1.74,10.47s0-.06,0-.08c0-.06-.01-.11-.02-.17,0-.02,0-.04,0-.07,0-.01,0-.02,0-.03-.01-.07-.03-.13-.05-.2-.01-.04-.03-.09-.05-.13-.01-.03-.03-.06-.04-.09-.04-.08-.08-.15-.12-.22-.02-.02-.03-.05-.05-.07-.03-.04-.06-.08-.09-.12-.02-.02-.04-.05-.06-.07-.06-.06-.12-.12-.18-.18-.02-.02-.04-.04-.07-.06-.04-.03-.08-.06-.12-.09-.02-.02-.05-.03-.07-.05-.07-.05-.15-.09-.22-.12-.03-.01-.06-.03-.09-.04-.04-.02-.09-.03-.13-.05-.07-.02-.13-.04-.2-.05-.01,0-.02,0-.03,0-.02,0-.04,0-.07,0-.06,0-.11-.02-.17-.02-.03,0-.06,0-.08,0-.03,0-.05,0-.08,0s-.05,0-.08,0c-.03,0-.06,0-.08,0-.06,0-.11,.01-.17,.02-.02,0-.04,0-.06,0-.07,.01-.15,.03-.22,.06-.01,0-.03,0-.04,.01-.06,.02-.12,.04-.17,.07-.02,.01-.05,.02-.07,.03-.05,.02-.09,.05-.13,.07-.02,.01-.05,.03-.07,.04-.04,.03-.08,.06-.13,.09-.02,.01-.04,.03-.06,.04-.06,.05-.11,.09-.16,.15h0c-.05,.05-.1,.11-.15,.17-.01,.02-.03,.04-.04,.06-.03,.04-.06,.08-.09,.13-.01,.02-.03,.04-.04,.07-.03,.04-.05,.09-.07,.13-.01,.02-.02,.04-.03,.07-.02,.06-.05,.11-.07,.17,0,.01-.01,.03-.01,.04-.02,.07-.04,.15-.06,.22,0,.02,0,.04,0,.06,0,.06-.02,.11-.02,.17,0,.03,0,.05,0,.08,0,.03,0,.05,0,.08s0,.05,0,.08c0,.03,0,.06,0,.08,0,.06,.01,.11,.02,.17,0,.02,0,.04,0,.07,0,.01,0,.02,0,.03,.01,.07,.03,.13,.05,.2,.01,.04,.03,.09,.05,.13,.01,.03,.03,.06,.04,.09,.04,.08,.08,.15,.12,.22,.02,.02,.03,.05,.05,.07,.03,.04,.06,.08,.09,.12,.02,.02,.04,.05,.06,.07,.06,.06,.12,.12,.18,.18,.02,.02,.04,.04,.07,.06,.04,.03,.08,.06,.12,.09,.02,.02,.05,.03,.07,.05,.07,.05,.15,.09,.22,.12,.03,.01,.06,.03,.09,.04,.04,.02,.09,.03,.13,.05,.07,.02,.13,.04,.2,.05,.01,0,.02,0,.03,0,.02,0,.04,0,.07,0,.06,0,.11,.02,.17,.02,.03,0,.06,0,.08,0,.03,0,.05,0,.08,0s.05,0,.08,0c.03,0,.06,0,.08,0,.06,0,.11-.01,.17-.02,.02,0,.04,0,.06,0,.07-.01,.15-.03,.22-.06,.01,0,.03-.01,.04-.01,.06-.02,.12-.04,.17-.07,.02-.01,.05-.02,.07-.03,.05-.02,.09-.05,.13-.07,.02-.01,.05-.03,.07-.04,.04-.03,.08-.06,.13-.09,.02-.01,.04-.03,.06-.04,.06-.05,.11-.09,.16-.15h0c.05-.05,.1-.11,.15-.17,.01-.02,.03-.04,.04-.06,.03-.04,.06-.08,.09-.13,.01-.02,.03-.04,.04-.07,.03-.04,.05-.09,.07-.13,.01-.02,.02-.04,.03-.07,.02-.06,.05-.11,.07-.17,0-.01,0-.03,.01-.04,.02-.07,.04-.15,.06-.22,0-.02,0-.04,0-.06,0-.06,.02-.11,.02-.17,0-.03,0-.05,0-.08,0-.03,0-.05,0-.08s0-.05,0-.08Zm10.66-5.63c-.19-.07-.4-.12-.61-.12-.94,0-1.71,.76-1.71,1.71s.76,1.71,1.71,1.71,1.71-.76,1.71-1.71c0-.24-.05-.46-.13-.66-.18-.43-.53-.76-.96-.93Zm-9.1,7.51c-.83,0-1.51,.68-1.51,1.51,0,.25,.06,.49,.17,.7,.17,.33,.47,.59,.83,.72,.16,.06,.33,.09,.51,.09,.83,0,1.51-.68,1.51-1.51s-.68-1.51-1.51-1.51Zm12.51-2.8c-.21-.24-.51-.39-.85-.39-.62,0-1.12,.5-1.12,1.12s.5,1.12,1.12,1.12,1.12-.5,1.12-1.12c0-.21-.06-.41-.16-.58-.04-.05-.07-.1-.11-.15Zm-4.6,2.55c-.71,0-1.29,.58-1.29,1.29s.58,1.29,1.29,1.29,1.29-.58,1.29-1.29-.58-1.29-1.29-1.29Zm-4.29,3.27c-.7,0-1.27,.57-1.27,1.27s.57,1.27,1.27,1.27,1.27-.57,1.27-1.27-.57-1.27-1.27-1.27Zm-.76-10.29s-.09-.09-.14-.13c-.02-.01-.03-.02-.05-.03-.04-.03-.07-.05-.11-.08-.02-.01-.04-.02-.06-.03-.04-.02-.08-.04-.12-.07-.02,0-.03-.02-.05-.02-.06-.03-.12-.05-.18-.07h-.03c-.05-.02-.1-.04-.16-.05-.02,0-.04,0-.06,0-.05,0-.09-.01-.14-.01-.02,0-.04,0-.07,0-.01,0-.03,0-.04,0-.04,0-.08,0-.13,0-.01,0-.03,0-.04,0-.06,0-.13,.02-.19,.03-.01,0-.02,0-.03,0-.03,0-.05,.02-.08,.02-.02,0-.05,.01-.07,.02-.51,.16-.92,.57-1.09,1.09,0,.02-.01,.05-.02,.07,0,.03-.02,.05-.02,.08,0,.01,0,.02,0,.03-.01,.06-.02,.13-.03,.19,0,.01,0,.03,0,.04,0,.04,0,.08,0,.13,0,.01,0,.03,0,.04,0,.02,0,.04,0,.07,0,.05,0,.09,.01,.14,0,.02,0,.04,0,.06,0,.05,.02,.11,.04,.16v.03c.03,.06,.05,.12,.08,.18,0,.02,.02,.03,.02,.05,.02,.04,.04,.08,.07,.13,.01,.02,.02,.04,.03,.05,.02,.04,.05,.08,.08,.11,.01,.02,.02,.03,.03,.05,.08,.1,.17,.19,.27,.27,.02,.01,.03,.02,.05,.03,.04,.03,.07,.05,.11,.08,.02,.01,.04,.02,.05,.03,.04,.02,.08,.04,.12,.07,.02,0,.03,.02,.05,.02,.06,.03,.12,.05,.18,.07h.03c.05,.02,.1,.04,.16,.05,.02,0,.04,0,.06,0,.05,0,.09,.01,.14,.01,.02,0,.04,0,.07,0,.01,0,.03,0,.04,0,.04,0,.08,0,.13,0,.01,0,.03,0,.04,0,.06,0,.13-.02,.19-.03,.01,0,.02,0,.03,0,.03,0,.05-.02,.08-.02,.02,0,.05-.01,.07-.02,.51-.16,.92-.57,1.09-1.09,0-.02,.01-.04,.02-.07,0-.03,.02-.05,.02-.08,0-.01,0-.02,0-.03,.01-.06,.02-.13,.03-.19,0-.01,0-.03,0-.04,0-.04,0-.08,0-.13,0-.01,0-.03,0-.04,0-.02,0-.04,0-.07,0-.05,0-.09-.01-.14,0-.02,0-.04,0-.06,0-.05-.02-.11-.04-.16v-.03c-.03-.06-.05-.12-.08-.18,0-.02-.02-.03-.02-.05-.02-.04-.04-.08-.07-.12-.01-.02-.02-.04-.03-.05-.02-.04-.05-.07-.08-.11-.01-.02-.02-.03-.03-.05-.04-.05-.08-.1-.13-.14h0Zm.89,4.3s-.02,0-.03,0c-.06-.01-.13-.02-.19-.03-.01,0-.03,0-.04,0-.04,0-.08,0-.13,0-.01,0-.03,0-.04,0-.02,0-.04,0-.07,0-.05,0-.09,0-.14,.01-.02,0-.04,0-.06,0-.05,0-.11,.02-.16,.04h-.03c-.06,.03-.12,.05-.18,.08-.02,0-.03,.02-.05,.02-.04,.02-.08,.04-.12,.07-.02,.01-.04,.02-.05,.03-.04,.02-.07,.05-.11,.08-.02,.01-.03,.02-.05,.04-.1,.08-.19,.17-.27,.27-.01,.02-.02,.03-.04,.05-.03,.04-.05,.07-.08,.11-.01,.02-.02,.04-.03,.06-.02,.04-.04,.08-.07,.12,0,.02-.02,.03-.02,.05-.03,.06-.05,.12-.07,.18v.03c-.02,.05-.04,.1-.05,.16,0,.02,0,.04,0,.06,0,.05-.01,.09-.01,.14,0,.02,0,.04,0,.07,0,.01,0,.03,0,.04,0,.04,0,.08,0,.13,0,.01,0,.03,0,.04,0,.06,.02,.13,.03,.19,0,.01,0,.02,0,.03,0,.03,.02,.05,.02,.08,0,.02,.01,.05,.02,.07,.16,.51,.57,.92,1.09,1.09,.02,0,.04,.01,.07,.02,.03,0,.05,.02,.08,.02,.01,0,.02,0,.03,0,.06,.01,.13,.02,.19,.03,.01,0,.03,0,.04,0,.04,0,.08,0,.13,0,.01,0,.03,0,.04,0,.02,0,.04,0,.07,0,.05,0,.09,0,.14-.01,.02,0,.04,0,.06,0,.05,0,.11-.02,.16-.04h.03c.06-.03,.12-.05,.18-.08,.02,0,.03-.02,.05-.02,.04-.02,.08-.04,.13-.07,.02-.01,.04-.02,.05-.03,.04-.02,.08-.05,.11-.08,.02-.01,.03-.02,.05-.03,.1-.08,.19-.17,.27-.27,.01-.02,.02-.03,.03-.05,.03-.04,.05-.07,.08-.11,.01-.02,.02-.04,.03-.06,.02-.04,.04-.08,.06-.12,0-.02,.02-.03,.02-.05,.03-.06,.05-.12,.07-.18v-.03c.02-.05,.04-.1,.05-.16,0-.02,0-.04,0-.06,0-.05,.01-.09,.01-.14,0-.02,0-.04,0-.07,0-.01,0-.03,0-.04,0-.04,0-.08,0-.13,0-.01,0-.03,0-.04,0-.06-.02-.13-.03-.19,0-.01,0-.02,0-.03,0-.03-.02-.05-.02-.08,0-.02-.01-.05-.02-.07-.16-.51-.57-.92-1.09-1.09-.02,0-.05-.01-.07-.02-.03,0-.05-.02-.08-.02Zm-6.21-4.08s-.04,.09-.05,.14c0,.02-.01,.04-.02,.06-.03,.14-.03,.29,0,.43,0,.02,.01,.04,.02,.06,.01,.05,.03,.1,.05,.14,.01,.02,.02,.05,.04,.07,.02,.04,.05,.08,.09,.12,.02,.02,.03,.04,.05,.06,0,0,.01,.02,.02,.03,.04,.04,.08,.07,.13,.1,0,0,.01,.01,.02,.02,.05,.04,.11,.06,.17,.09h.03s.1,.04,.15,.05h.03c.12,.03,.24,.03,.36,0h.03c.05-.02,.1-.03,.15-.05h.03c.06-.03,.11-.06,.17-.1,0,0,.01-.01,.02-.02,.04-.03,.09-.06,.13-.1,0,0,.01-.02,.02-.03,.02-.02,.03-.04,.05-.06,.03-.04,.06-.08,.09-.12,.01-.02,.03-.05,.04-.07,.02-.05,.04-.09,.05-.14,0-.02,.01-.04,.02-.06,.03-.14,.03-.29,0-.43,0-.02-.01-.04-.02-.06-.01-.05-.03-.1-.05-.14-.01-.02-.02-.05-.04-.07-.02-.04-.05-.08-.09-.12-.02-.02-.03-.04-.05-.06,0,0-.01-.02-.02-.03-.04-.04-.08-.07-.13-.1,0,0-.01-.01-.02-.02-.05-.04-.11-.06-.17-.09h-.03s-.1-.04-.15-.05h-.03c-.12-.03-.24-.03-.36,0h-.03c-.05,.02-.1,.03-.15,.05h-.03c-.06,.03-.11,.06-.17,.1,0,0-.02,.01-.02,.02-.04,.03-.09,.06-.13,.1,0,0-.01,.02-.02,.03-.02,.02-.03,.04-.05,.06-.03,.04-.06,.08-.09,.12-.01,.02-.03,.05-.04,.07Zm8.92,2.62s-.09-.04-.14-.05c-.02,0-.04-.01-.06-.02-.14-.03-.29-.03-.43,0-.02,0-.04,.01-.06,.02-.05,.01-.1,.03-.14,.05-.02,.01-.05,.02-.07,.04-.04,.02-.08,.05-.12,.09-.02,.02-.04,.03-.06,.05,0,0-.02,.01-.03,.02-.04,.04-.07,.08-.1,.13,0,0-.01,.01-.02,.02-.04,.05-.06,.11-.09,.17v.03s-.04,.1-.05,.15v.03c-.03,.12-.03,.24,0,.36v.03c.02,.05,.03,.1,.05,.15v.03c.03,.06,.06,.11,.1,.17,0,0,.01,.01,.02,.02,.03,.04,.06,.09,.1,.13,0,0,.02,.01,.03,.02,.02,.02,.04,.03,.06,.05,.04,.03,.08,.06,.12,.09,.02,.01,.05,.03,.07,.04,.05,.02,.09,.04,.14,.05,.02,0,.04,.01,.06,.02,.14,.03,.29,.03,.43,0,.02,0,.04-.01,.06-.02,.05-.01,.1-.03,.14-.05,.02-.01,.05-.02,.07-.04,.04-.02,.08-.05,.12-.09,.02-.02,.04-.03,.06-.05,0,0,.02-.01,.03-.02,.04-.04,.07-.08,.1-.13,0,0,.01-.01,.02-.02,.04-.05,.06-.11,.09-.17v-.03s.04-.1,.05-.15v-.03c.03-.12,.03-.24,0-.36v-.03c-.02-.05-.03-.1-.05-.15v-.03c-.03-.06-.06-.11-.1-.17,0,0-.01-.01-.02-.02-.03-.04-.06-.09-.1-.13,0,0-.02-.01-.03-.02-.02-.02-.04-.03-.06-.05-.04-.03-.08-.06-.12-.09-.02-.01-.05-.03-.07-.04Zm-10.36,39.52c-.59-.47-1.12-1.03-1.49-1.69-.79-1.45-1.62-2.84-2.69-3.08-1.95-.43-1.3,1.89-3.36,.9-.37-.18-.77-.49-1.14-.68-.42-.21-.86-.36-1.32-.44-7.49-1.25-13.2-7.75-13.2-15.59s5.71-14.35,13.2-15.59c.46-.08,.9-.23,1.32-.44,.37-.19,.77-.5,1.14-.68,2.06-.99,1.41,1.33,3.36,.9,1.07-.23,1.89-1.63,2.69-3.08,.37-.67,.89-1.22,1.49-1.69,.86-.68,1.1-1.69,1.01-2.49-.06-2.36-3.36-2.3-4.07-.65-.32,.74-.61,1.22-.93,1.5-.89,.76-2.06-.55-1.26-1.4,.31-.33,.76-.61,1.25-.75,1.21-.58,1.75-1.68,1.58-2.85-.19-1.32-1.29-2.28-2.62-2.3-2.02-.03-2.18,2.17-2.37,2.91-.36,1.37-2.65,1.59-3.48-.37-.35-.82-1.12-1.31-1.9-1.61-1.1-.41-2.31-.43-3.44-.09-12.24,3.78-21.14,15.18-21.14,28.67s8.9,24.89,21.14,28.67c1.13,.35,2.34,.33,3.44-.09,.78-.3,1.55-.79,1.9-1.61,.83-1.96,3.12-1.73,3.48-.37,.19,.74,.36,2.94,2.37,2.91,1.33-.02,2.44-.97,2.62-2.3,.16-1.17-.37-2.27-1.58-2.85-.49-.13-.94-.42-1.25-.75-.8-.85,.37-2.16,1.26-1.4,.32,.28,.62,.75,.93,1.5,.71,1.65,4.01,1.71,4.07-.65,.09-.8-.15-1.81-1.01-2.49Zm3.78,2.84c-1.14,0-2.06,.92-2.06,2.06s.92,2.06,2.06,2.06,2.06-.92,2.06-2.06-.92-2.06-2.06-2.06Zm-13.16,3.55c-.83,0-1.51,.68-1.51,1.51s.68,1.51,1.51,1.51,1.51-.68,1.51-1.51-.68-1.51-1.51-1.51Zm17.63-4.25c-.39,.39-.39,1.02,0,1.4,.39,.39,1.02,.39,1.4,0,.39-.39,.39-1.02,0-1.4s-1.02-.39-1.4,0Zm-9.05,4.12c-.39,.39-.39,1.02,0,1.4s1.02,.39,1.4,0c.39-.39,.39-1.02,0-1.4-.39-.39-1.02-.39-1.4,0Zm8.06-6.41s0-.03,0-.04c0-.06-.02-.13-.03-.19,0-.01,0-.02,0-.03,0-.03-.02-.05-.02-.08,0-.02-.01-.05-.02-.07-.16-.51-.57-.92-1.09-1.09-.02,0-.04-.01-.07-.02-.03,0-.05-.02-.08-.02-.01,0-.02,0-.03,0-.06-.01-.13-.02-.19-.03-.01,0-.03,0-.04,0-.04,0-.08,0-.13,0-.01,0-.03,0-.04,0-.02,0-.05,0-.07,0-.05,0-.09,0-.14,.01-.02,0-.04,0-.06,0-.05,0-.11,.02-.16,.04h-.03c-.06,.03-.12,.05-.18,.08-.02,0-.03,.02-.05,.02-.04,.02-.08,.04-.12,.06-.02,.01-.04,.02-.06,.03-.04,.02-.07,.05-.11,.08-.02,.01-.03,.02-.05,.03-.1,.08-.19,.17-.27,.27-.01,.02-.02,.03-.04,.05-.03,.04-.05,.07-.08,.11-.01,.02-.02,.04-.03,.06-.02,.04-.04,.08-.07,.12,0,.02-.02,.03-.02,.05-.03,.06-.05,.12-.07,.18v.03c-.02,.05-.04,.1-.05,.16,0,.02,0,.04,0,.06,0,.05-.01,.09-.01,.14,0,.02,0,.04,0,.07,0,.01,0,.03,0,.04,0,.04,0,.08,0,.13,0,.01,0,.03,0,.04,0,.06,.02,.13,.03,.19,0,.01,0,.02,0,.03,0,.03,.02,.05,.02,.08,0,.02,.01,.05,.02,.07,.16,.51,.57,.92,1.09,1.09,.02,0,.05,.01,.07,.02,.03,0,.05,.02,.08,.02,.01,0,.02,0,.03,0,.06,.01,.13,.02,.19,.03,.01,0,.03,0,.04,0,.04,0,.08,0,.13,0,.01,0,.03,0,.04,0,.02,0,.04,0,.07,0,.05,0,.09,0,.14-.01,.02,0,.04,0,.06,0,.05,0,.11-.02,.16-.04h.03c.06-.03,.12-.05,.18-.08,.02,0,.03-.02,.05-.02,.04-.02,.08-.04,.12-.07,.02-.01,.04-.02,.06-.03,.04-.02,.07-.05,.11-.08,.02-.01,.03-.02,.05-.03,.05-.04,.1-.08,.14-.13h0s.09-.09,.13-.14c.01-.02,.02-.03,.03-.05,.03-.04,.05-.07,.08-.11,.01-.02,.02-.04,.03-.05,.02-.04,.04-.08,.07-.12,0-.02,.02-.03,.02-.05,.03-.06,.05-.12,.07-.18v-.03c.02-.05,.04-.1,.05-.16,0-.02,0-.04,0-.06,0-.05,.01-.09,.01-.14,0-.02,0-.04,0-.07,0-.01,0-.03,0-.04,0-.04,0-.08,0-.13Zm5.13-1.73c-.94,0-1.71,.76-1.71,1.71s.76,1.71,1.71,1.71c.22,0,.42-.04,.61-.12,.43-.17,.78-.5,.96-.93,.09-.2,.13-.43,.13-.66,0-.94-.76-1.71-1.71-1.71Zm-4.77-1.23s.02,0,.03,0c.03,0,.05-.02,.08-.02,.02,0,.05-.01,.07-.02,.51-.16,.92-.57,1.09-1.09,0-.02,.01-.05,.02-.07,0-.03,.02-.05,.02-.08,0-.01,0-.02,0-.03,.01-.06,.02-.13,.03-.19,0-.01,0-.03,0-.04,0-.04,0-.08,0-.13,0-.01,0-.03,0-.04,0-.02,0-.04,0-.07,0-.05,0-.09-.01-.14,0-.02,0-.04,0-.06,0-.05-.02-.11-.04-.16v-.03c-.03-.06-.05-.12-.08-.18,0-.02-.02-.03-.02-.05-.02-.04-.04-.08-.06-.12-.01-.02-.02-.04-.03-.06-.02-.04-.05-.07-.08-.11-.01-.02-.02-.03-.04-.05-.08-.1-.17-.19-.27-.27-.02-.01-.03-.02-.05-.04-.04-.03-.07-.05-.11-.08-.02-.01-.04-.02-.06-.03-.04-.02-.08-.04-.12-.06-.02,0-.03-.02-.05-.02-.06-.03-.12-.05-.18-.07h-.03c-.05-.02-.1-.04-.16-.05-.02,0-.04,0-.06,0-.05,0-.09-.01-.14-.01-.02,0-.04,0-.07,0-.01,0-.03,0-.04,0-.04,0-.08,0-.13,0-.01,0-.03,0-.04,0-.06,0-.13,.02-.19,.03-.01,0-.02,0-.03,0-.03,0-.05,.02-.08,.02-.02,0-.05,.01-.07,.02-.51,.16-.92,.57-1.09,1.09,0,.02-.01,.05-.02,.07,0,.03-.02,.05-.02,.08,0,.01,0,.02,0,.03-.01,.06-.02,.13-.03,.19,0,.01,0,.03,0,.04,0,.04,0,.08,0,.13,0,.01,0,.03,0,.04,0,.02,0,.04,0,.07,0,.05,0,.09,.01,.14,0,.02,0,.04,0,.06,0,.05,.02,.11,.04,.16v.03c.03,.06,.05,.12,.08,.18,0,.02,.02,.03,.02,.05,.02,.04,.04,.08,.07,.12,.01,.02,.02,.04,.03,.06,.02,.04,.05,.07,.08,.11,.01,.02,.02,.03,.03,.05,.08,.1,.17,.19,.27,.27,.02,.01,.03,.02,.05,.03,.04,.03,.07,.05,.11,.08,.02,.01,.04,.02,.05,.03,.04,.02,.08,.05,.13,.07,.02,0,.03,.02,.05,.02,.06,.03,.12,.05,.18,.07h.03c.05,.02,.1,.04,.16,.05,.02,0,.04,0,.06,0,.05,0,.09,.01,.14,.01,.02,0,.04,0,.07,0,.01,0,.03,0,.04,0,.04,0,.08,0,.13,0,.01,0,.03,0,.04,0,.06,0,.13-.02,.19-.03Zm-3.72-6c-.18,0-.35,.03-.51,.09-.36,.13-.65,.39-.83,.72-.11,.21-.17,.45-.17,.7,0,.83,.68,1.51,1.51,1.51s1.51-.68,1.51-1.51-.68-1.51-1.51-1.51Zm11.67,3.97c-.62,0-1.12,.5-1.12,1.12s.5,1.12,1.12,1.12c.34,0,.64-.15,.85-.39,.04-.05,.07-.1,.11-.15,.1-.17,.16-.36,.16-.58,0-.62-.5-1.12-1.12-1.12Zm-3.75-3.28c-.71,0-1.29,.58-1.29,1.29s.58,1.29,1.29,1.29,1.29-.58,1.29-1.29-.58-1.29-1.29-1.29Zm-1.06,6.43s.01-.01,.02-.02c.04-.05,.06-.11,.09-.17v-.03s.04-.1,.05-.15v-.03c.03-.12,.03-.24,0-.36v-.03c-.02-.05-.03-.1-.05-.15v-.03c-.03-.06-.06-.11-.1-.17,0,0-.01-.01-.02-.02-.03-.04-.06-.09-.1-.13,0,0-.02-.01-.03-.02-.02-.02-.04-.03-.06-.05-.04-.03-.08-.06-.12-.09-.02-.01-.05-.03-.07-.04-.05-.02-.09-.04-.14-.05-.02,0-.04-.01-.06-.02-.14-.03-.29-.03-.43,0-.02,0-.04,.01-.06,.02-.05,.01-.1,.03-.14,.05-.02,.01-.05,.02-.07,.04-.04,.02-.08,.05-.12,.09-.02,.02-.04,.03-.06,.05,0,0-.02,.01-.03,.02-.04,.04-.07,.08-.1,.13,0,0-.01,.01-.02,.02-.04,.05-.06,.11-.09,.17v.03s-.04,.1-.05,.15v.03c-.03,.12-.03,.24,0,.36v.03c.02,.05,.03,.1,.05,.15v.03c.03,.06,.06,.11,.1,.17,0,0,.01,.01,.02,.02,.03,.04,.06,.09,.1,.13,0,0,.02,.01,.03,.02,.02,.02,.04,.03,.06,.05,.04,.03,.08,.06,.12,.09,.02,.01,.05,.03,.07,.04,.05,.02,.09,.04,.14,.05,.02,0,.04,.01,.06,.02,.14,.03,.29,.03,.43,0,.02,0,.04-.01,.06-.02,.05-.01,.1-.03,.14-.05,.02-.01,.05-.02,.07-.04,.04-.02,.08-.05,.12-.09,.02-.02,.04-.03,.06-.05,0,0,.02-.01,.03-.02,.04-.04,.07-.08,.1-.13Zm-8.99,3.33s.01,.01,.02,.02c.05,.04,.11,.06,.17,.09h.03s.1,.04,.15,.05h.03c.12,.03,.24,.03,.36,0h.03c.05-.02,.1-.03,.15-.05h.03c.06-.03,.11-.06,.17-.1,0,0,.01-.01,.02-.02,.04-.03,.09-.06,.13-.1,0,0,.01-.02,.02-.03,.02-.02,.03-.04,.05-.06,.03-.04,.06-.08,.09-.12,.01-.02,.03-.05,.04-.07,.02-.05,.04-.09,.05-.14,0-.02,.01-.04,.02-.06,.03-.14,.03-.29,0-.43,0-.02-.01-.04-.02-.06-.01-.05-.03-.1-.05-.14-.01-.02-.02-.05-.04-.07-.02-.04-.05-.08-.09-.12-.02-.02-.03-.04-.05-.06,0,0-.01-.02-.02-.03-.04-.04-.08-.07-.13-.1,0,0-.01-.01-.02-.02-.05-.04-.11-.06-.17-.09h-.03s-.1-.04-.15-.05h-.03c-.12-.03-.24-.03-.36,0h-.03c-.05,.02-.1,.03-.15,.05h-.03c-.06,.03-.11,.06-.17,.1,0,0-.02,.01-.02,.02-.04,.03-.09,.06-.13,.1,0,0-.01,.02-.02,.03-.02,.02-.03,.04-.05,.06-.03,.04-.06,.08-.09,.12-.01,.02-.03,.05-.04,.07-.02,.05-.04,.09-.05,.14,0,.02-.01,.04-.02,.06-.03,.14-.03,.29,0,.43,0,.02,.01,.04,.02,.06,.01,.05,.03,.1,.05,.14,.01,.02,.02,.05,.04,.07,.02,.04,.05,.08,.09,.12,.02,.02,.03,.04,.05,.06,0,0,.01,.02,.02,.03,.04,.04,.08,.07,.13,.1Zm5.76-13c-.7,0-1.27,.57-1.27,1.27s.57,1.27,1.27,1.27,1.27-.57,1.27-1.27-.57-1.27-1.27-1.27Zm-9.24,7.51c0,.06,.01,.11,.02,.17,0,.02,0,.04,0,.06,.01,.07,.03,.15,.06,.22,0,.01,0,.03,.01,.04,.02,.06,.04,.12,.07,.17,.01,.02,.02,.05,.03,.07,.02,.05,.05,.09,.07,.13,.01,.02,.03,.05,.04,.07,.03,.04,.06,.09,.09,.13,.01,.02,.03,.04,.04,.06,.05,.06,.09,.11,.15,.16h0c.05,.05,.11,.1,.16,.15,.02,.01,.04,.03,.06,.04,.04,.03,.08,.06,.13,.09,.02,.01,.04,.03,.07,.04,.04,.03,.09,.05,.13,.07,.02,.01,.04,.02,.07,.03,.06,.02,.11,.05,.17,.07,.01,0,.03,.01,.04,.01,.07,.02,.15,.04,.22,.06,.02,0,.04,0,.06,0,.06,0,.11,.02,.17,.02,.03,0,.05,0,.08,0,.03,0,.05,0,.08,0s.05,0,.08,0c.03,0,.06,0,.08,0,.06,0,.11-.01,.17-.02,.02,0,.04,0,.07,0,.01,0,.02,0,.03,0,.07-.01,.13-.03,.2-.05,.04-.01,.09-.03,.13-.05,.03-.01,.06-.03,.09-.04,.08-.04,.15-.08,.22-.12,.02-.02,.05-.03,.07-.05,.04-.03,.08-.06,.12-.09,.02-.02,.05-.04,.07-.06,.06-.06,.12-.12,.18-.18,.02-.02,.04-.05,.06-.07,.03-.04,.06-.08,.09-.12,.02-.02,.03-.05,.05-.07,.04-.07,.08-.15,.12-.22,.01-.03,.03-.06,.04-.09,.02-.04,.03-.09,.05-.13,.02-.07,.04-.13,.05-.2,0-.01,0-.02,0-.03,0-.02,0-.04,0-.07,0-.06,.02-.11,.02-.17,0-.03,0-.06,0-.08,0-.03,0-.05,0-.08s0-.05,0-.08c0-.03,0-.06,0-.08,0-.06-.01-.11-.02-.17,0-.02,0-.04,0-.06-.01-.08-.03-.15-.06-.22,0-.01,0-.03-.01-.04-.02-.06-.04-.12-.07-.17-.01-.02-.02-.05-.03-.07-.02-.05-.05-.09-.07-.13-.01-.02-.03-.05-.04-.07-.03-.04-.06-.09-.09-.13-.01-.02-.03-.04-.04-.06-.05-.06-.09-.11-.15-.16h0c-.05-.05-.11-.1-.16-.15-.02-.01-.04-.03-.06-.04-.04-.03-.08-.06-.13-.09-.02-.01-.04-.03-.07-.04-.04-.03-.09-.05-.13-.07-.02-.01-.04-.02-.07-.03-.06-.02-.11-.05-.17-.07-.01,0-.03-.01-.04-.01-.07-.02-.15-.04-.22-.06-.02,0-.04,0-.06,0-.06,0-.11-.02-.17-.02-.03,0-.05,0-.08,0-.03,0-.05,0-.08,0s-.05,0-.08,0c-.03,0-.06,0-.08,0-.06,0-.11,.01-.17,.02-.02,0-.04,0-.07,0-.01,0-.02,0-.03,0-.07,.01-.13,.03-.2,.05-.04,.01-.09,.03-.13,.05-.03,.01-.06,.03-.09,.04-.08,.04-.15,.08-.22,.12-.02,.02-.05,.03-.07,.05-.04,.03-.08,.06-.12,.09-.02,.02-.05,.04-.07,.06-.06,.06-.12,.12-.18,.18-.02,.02-.04,.04-.06,.07-.03,.04-.06,.08-.09,.12-.02,.02-.03,.05-.05,.07-.04,.07-.09,.15-.12,.22-.01,.03-.03,.06-.04,.09-.02,.04-.03,.09-.05,.13-.02,.07-.04,.13-.05,.2,0,.01,0,.02,0,.03,0,.02,0,.04,0,.07,0,.06-.02,.11-.02,.17,0,.03,0,.06,0,.08,0,.03,0,.05,0,.08s0,.05,0,.08c0,.03,0,.06,0,.08Z"/></svg>